<?xml version="1.0" encoding="UTF-8"?>
<svg xmlns="http://www.w3.org/2000/svg" xmlns:xlink="http://www.w3.org/1999/xlink" width="720px" height="513px" viewBox="0 0 720 513" version="1.1">
   <!-- Generator: Sketch 55.2 (78181) - https://sketchapp.com -->
   <title>grid-1</title>
   <desc>Created with Sketch.</desc>
   <defs>
      <linearGradient x1="0%" y1="-45%" x2="100%" y2="-45%" id="linearGradient">
         <stop offset="0%" stop-color="#888888">
            <animate attributeName="stop-color" values="#888888;" />
         </stop>
         <stop offset="80%" stop-color="#888888">
            <animate attributeName="stop-color" values="#888888;" />
         </stop>
         <stop offset="85%" stop-color="#EBB300">
            <animate attributeName="stop-color" values="#EBB300;" />
         </stop>
         <stop offset="90%" stop-color="#888888">
            <animate attributeName="stop-color" values="#888888;" />
         </stop>
         <stop offset="100%" stop-color="#888888">
            <animate attributeName="stop-color" values="#888888;" />
         </stop>
      </linearGradient>
      <pattern id="pattern" x="0" y="0" width="500%" height="100%" patternUnits="userSpaceOnUse">
         <rect x="0" y="0" width="250%" height="100%" fill="url(#linearGradient)">
            <animate attributeType="XML" attributeName="x" from="0" to="250%" dur="10s" repeatCount="indefinite" />
         </rect>
         <rect x="-250%" y="0" width="250%" height="100%" fill="url(#linearGradient)">
            <animate attributeType="XML" attributeName="x" from="-250%" to="0" dur="10s" repeatCount="indefinite" />
         </rect>
      </pattern>
   </defs>
   <g id="Page-1" stroke="none" stroke-width="1" fill="none" fill-rule="evenodd">
      <g id="Desktop" transform="translate(-217.000000, -461.000000)" fill="url(#pattern)" fill-rule="nonzero">
         <g id="grid-1" transform="translate(217.000000, 461.000000)">
            <path d="M442.94085,0 L387.64646,31.978081 L332.65009,0.169947 L332.35502,0 L276.76408,32.148028 L276.46901,32.32093 L276.46901,96.673142 L222.10999,128.10887 L222.06278,128.079314 L221.76623,127.909367 L221.421,128.110348 L166.768383,96.501717 L166.473315,96.33177 L110.883854,128.479798 L110.58731,128.651222 L110.58731,193.288649 L165.281237,224.919447 L111.516776,256.010849 L111.475466,255.987204 L111.178922,255.817257 L55.589461,287.963807 L55.294392,288.135232 L55.294392,288.526848 L0.296544,320.332026 L0,320.503451 L0,385.140878 L55.589461,417.288905 L55.886005,417.458852 L111.178922,385.483727 L166.178246,417.288905 L166.473315,417.458852 L221.76623,385.483727 L276.7626,417.290383 L277.06062,417.46033 L331.76193,385.826576 L331.76193,449.095561 L387.35139,481.245067 L387.64646,481.415014 L387.98431,481.219944 L442.64578,512.830053 L442.94085,513 L497.89591,481.219944 L497.9387,481.245067 L498.23524,481.415014 L498.57162,481.219944 L553.23309,512.830053 L553.52964,513 L608.48322,481.219944 L608.52601,481.245067 L608.82108,481.415014 L664.41054,449.266986 L664.70708,449.095561 L664.70708,384.458135 L610.0043,352.822903 L664.41201,321.359096 L664.70708,321.187672 L664.70708,257.232988 L664.70708,256.842849 L719.70641,225.037671 L720,224.864768 L720,160.227342 L664.41201,128.079314 L664.11547,127.909367 L608.82108,159.88597 L555.38857,128.985205 L609.11762,97.911537 L609.41417,97.740112 L609.41417,33.102685 L553.82323,0.954658 L553.52964,0.784711 L498.82538,32.416987 L498.82538,32.32093 L443.2374,0.169947 L442.94085,0 Z M277.65224,96.272658 L277.65224,33.003673 L332.35502,1.368441 L386.80994,32.861804 L332.05847,64.525114 L331.76193,64.698016 L331.76193,127.567996 L277.65224,96.272658 Z M554.11977,128.250739 L554.11977,64.698016 L499.74895,33.253421 L553.52964,2.151675 L608.23094,33.786906 L608.23094,97.057369 L554.20534,128.299506 L554.11977,128.250739 Z M389.16164,33.253421 L442.94085,2.151675 L496.72154,33.253421 L442.93938,64.355167 L389.16164,33.253421 Z M498.82538,97.057369 L498.82538,96.958357 L498.82538,34.088377 L552.93655,65.380759 L552.93655,128.250739 L552.85245,128.299506 L498.82538,97.057369 Z M443.53246,65.380759 L497.64216,34.088377 L497.64216,96.272658 L443.53246,127.567996 L443.53246,65.380759 Z M388.23807,96.272658 L388.23807,34.088377 L442.34924,65.380759 L442.34924,127.567996 L388.23807,96.272658 Z M332.94515,65.380759 L387.05485,34.088377 L387.05485,96.272658 L332.94515,127.567996 L332.94515,65.380759 Z M223.29469,128.793091 L277.06062,97.698734 L330.82509,128.793091 L277.05915,159.88597 L223.29469,128.793091 Z M111.76906,192.604428 L111.76906,129.335443 L166.473315,97.698734 L220.23778,128.793091 L166.178246,160.055917 L165.880227,160.227342 L165.880227,223.89681 L111.76906,192.604428 Z M333.88347,128.793091 L387.31598,97.890847 L441.08044,128.985205 L387.64646,159.88597 L333.88347,128.793091 Z M444.79978,128.985205 L498.23524,98.081483 L551.66923,128.985205 L498.23377,159.88597 L444.79978,128.985205 Z M664.70708,192.595561 L609.66645,160.763783 L664.11547,129.277809 L718.81677,160.911563 L718.81677,224.180548 L664.70708,255.474408 L664.70708,192.595561 Z M277.65224,160.911563 L331.76193,129.61918 L331.76193,192.205423 L277.65224,223.496327 L277.65224,160.911563 Z M222.35784,192.205423 L222.35784,129.61918 L276.46901,160.911563 L276.46901,223.497805 L222.35784,192.205423 Z M167.063452,160.911563 L221.17462,129.61918 L221.17462,192.205423 L167.063452,223.496327 L167.063452,160.911563 Z M554.20534,129.669425 L607.97718,160.763783 L553.52816,192.25419 L499.42437,160.964763 L553.19768,129.868928 L553.23162,129.889617 L553.52964,130.059564 L554.20534,129.669425 Z M443.53246,130.019664 L497.04464,160.964763 L443.53246,191.911341 L443.53246,130.019664 Z M388.83854,160.964763 L442.34924,130.019664 L442.34924,191.912819 L388.83854,160.964763 Z M332.94515,130.019664 L386.45586,160.964763 L332.94515,191.911341 L332.94515,130.019664 Z M609.41417,224.180548 L609.41417,161.9874 L663.52386,193.28126 L663.52386,255.474408 L609.41417,224.180548 Z M554.11977,193.28126 L608.23094,161.9874 L608.23094,224.180548 L554.11977,255.474408 L554.11977,193.28126 Z M498.82538,224.180548 L498.82538,161.9874 L552.93655,193.28126 L552.93655,255.474408 L498.82538,224.180548 Z M443.53246,193.288649 L443.53246,193.28126 L497.64216,161.9874 L497.64216,224.180548 L443.53246,255.474408 L443.53246,193.288649 Z M388.23807,161.9874 L441.76648,192.942844 L388.23807,223.89681 L388.23807,161.9874 Z M333.87462,192.741863 L387.05485,161.9874 L387.05485,223.497805 L333.87462,192.741863 Z M168.000295,224.724378 L221.76623,193.63002 L275.53069,224.724378 L221.76623,255.817257 L168.000295,224.724378 Z M332.94515,193.97287 L386.118,224.724378 L332.94515,255.474408 L332.94515,193.97287 Z M389.17491,224.724378 L442.34924,193.974347 L442.34924,255.474408 L389.17491,224.724378 Z M278.5876,224.724378 L331.76193,193.974347 L331.76193,255.474408 L278.5876,224.724378 Z M555.05071,256.696547 L608.82255,225.599234 L662.93372,256.891617 L609.16041,287.988929 L555.05071,256.696547 Z M444.46341,256.696547 L498.23524,225.599234 L552.00708,256.696547 L498.23377,287.79386 L444.46341,256.696547 Z M388.23807,225.940606 L441.41977,256.696547 L388.23807,287.449533 L388.23807,225.940606 Z M333.53824,256.891617 L387.05485,225.940606 L387.05485,287.842627 L333.53824,256.891617 Z M277.65224,288.135232 L277.65224,225.940606 L331.76193,257.232988 L331.76193,319.429092 L277.65224,288.135232 Z M223.28879,256.696547 L276.46901,225.940606 L276.46901,287.451011 L223.28879,256.696547 Z M167.063452,225.940606 L220.24515,256.696547 L167.063452,287.449533 L167.063452,225.940606 Z M112.700001,256.696547 L165.880227,225.940606 L165.880227,287.451011 L112.700001,256.696547 Z M222.35784,257.52707 L275.8774,288.476603 L222.35784,319.429092 L222.35784,257.52707 Z M167.65654,288.476603 L221.17462,257.52707 L221.17462,319.429092 L167.65654,288.476603 Z M111.76906,257.52707 L165.626468,288.67315 L111.76906,319.81923 L111.76906,257.52707 Z M56.729902,288.67315 L110.58731,257.52707 L110.58731,319.820708 L56.729902,288.67315 Z M609.41417,289.209591 L663.52386,257.918687 L663.52386,320.503451 L609.41417,351.797311 L609.41417,289.209591 Z M554.11977,320.503451 L554.11977,257.918687 L608.23094,289.211069 L608.23094,351.797311 L554.11977,320.503451 Z M499.41847,288.86822 L552.93655,257.918687 L552.93655,319.820708 L499.41847,288.86822 Z M443.53246,257.918687 L497.05054,288.86822 L443.53246,319.81923 L443.53246,257.918687 Z M388.82968,288.86822 L442.34924,257.918687 L442.34924,319.820708 L388.82968,288.86822 Z M332.94515,257.918687 L386.12685,288.67315 L332.94515,319.429092 L332.94515,257.918687 Z M498.82538,289.895289 L552.34494,320.8463 L498.82538,351.797311 L498.82538,289.895289 Z M444.12408,320.8463 L497.64216,289.895289 L497.64216,351.797311 L444.12408,320.8463 Z M388.23807,289.895289 L441.75763,320.8463 L388.23807,351.797311 L388.23807,289.895289 Z M333.53824,320.8463 L387.05485,289.895289 L387.05485,351.797311 L333.53824,320.8463 Z M277.65224,289.895289 L331.17179,320.8463 L277.65224,351.795833 L277.65224,289.895289 Z M222.94946,320.8463 L276.46901,289.895289 L276.46901,351.795833 L222.94946,320.8463 Z M167.063452,289.895289 L220.58301,320.8463 L167.063452,351.795833 L167.063452,289.895289 Z M112.362148,320.8463 L165.880227,289.895289 L165.880227,351.795833 L112.362148,320.8463 Z M56.477618,352.088437 L56.477618,289.895289 L110.58731,321.187672 L110.58731,383.382298 L56.477618,352.088437 Z M1.183225,384.458135 L1.183225,321.187672 L55.294392,289.895289 L55.294392,352.772658 L110.335026,384.605915 L55.886005,416.091889 L1.183225,384.458135 Z M554.11977,321.871892 L607.3,352.627834 L554.11977,383.382298 L554.11977,321.871892 Z M499.75632,352.627834 L552.93655,321.871892 L552.93655,383.382298 L499.75632,352.627834 Z M443.53246,321.871892 L496.71269,352.627834 L443.53246,383.382298 L443.53246,321.871892 Z M389.16901,352.627834 L442.34924,321.871892 L442.34924,383.382298 L389.16901,352.627834 Z M332.94515,321.871892 L386.46471,352.824381 L332.94515,383.772436 L332.94515,321.871892 Z M331.76193,321.871892 L331.76193,384.458135 L277.06062,416.093366 L222.6116,384.604437 L276.7213,353.310577 L276.7626,353.337177 L277.06062,353.507124 L331.76193,321.871892 Z M222.35784,321.871892 L275.53807,352.627834 L222.35784,383.382298 L222.35784,321.871892 Z M167.992918,352.626356 L221.17462,321.871892 L221.17462,383.382298 L167.992918,352.626356 Z M111.76906,321.871892 L164.95076,352.626356 L111.76906,383.382298 L111.76906,321.871892 Z M166.809693,353.310577 L220.92086,384.605915 L166.473315,416.091889 L112.022819,384.604437 L166.133986,353.310577 L166.178246,353.335699 L166.473315,353.505646 L166.809693,353.310577 Z M609.41417,416.043121 L555.04924,384.602959 L608.82108,353.507124 L663.52386,385.140878 L663.52386,448.411341 L609.41417,479.703723 L609.41417,416.043121 Z M444.46341,384.604437 L498.23524,353.507124 L552.00708,384.604437 L498.23377,415.70175 L444.46341,384.604437 Z M333.53824,384.799506 L387.64646,353.507124 L441.41977,384.604437 L387.35287,415.871697 L387.30713,415.896819 L333.53824,384.799506 Z M554.11977,448.411341 L554.11977,385.433482 L608.23094,416.727342 L608.23094,479.705201 L554.11977,448.411341 Z M498.82538,417.118958 L552.93655,385.825098 L552.93655,448.411341 L498.82538,479.703723 L498.82538,417.118958 Z M443.53246,448.411341 L443.53246,385.826576 L497.64216,417.120436 L497.64216,479.703723 L443.53246,448.411341 Z M388.23807,417.118958 L442.34924,385.826576 L442.34924,448.411341 L388.23807,479.703723 L388.23807,417.118958 Z M332.94515,448.411341 L332.94515,385.826576 L387.05485,417.120436 L387.05485,479.703723 L332.94515,448.411341 Z M499.75485,480.535724 L553.52816,449.436933 L607.3,480.535724 L553.52964,511.631559 L499.75485,480.535724 Z M389.16754,480.535724 L442.94085,449.436933 L496.71269,480.535724 L442.94085,511.631559 L389.16754,480.535724 Z" id="Fill-1" />
         </g>
      </g>
   </g>
</svg>